<?xml version="1.0" encoding="UTF-8"?>
<svg id="Layer_1" xmlns="http://www.w3.org/2000/svg" viewBox="0 0 795.21 687.35">
  <defs>
    <style>
      .cls-1 {
        fill: #fdd9a3;
      }

      .cls-2 {
        fill: #eff8fc;
      }

      .cls-3 {
        fill: #f9fcfe;
      }

      .cls-4 {
        fill: #fed89e;
      }

      .cls-5 {
        fill: #fbfdfd;
      }

      .cls-6 {
        fill: #fbfdfe;
      }

      .cls-7 {
        fill: #e2f2fa;
      }

      .cls-8 {
        fill: #e1f1fa;
      }

      .cls-9 {
        fill: #f3f9fd;
      }

      .cls-10 {
        fill: #fcfefe;
      }

      .cls-11 {
        fill: #fafdfe;
      }

      .cls-12 {
        fill: #f9fcfd;
      }

      .cls-13 {
        fill: #113160;
      }

      .cls-14 {
        fill: #e0f1fa;
      }

      .cls-15 {
        fill: #fcfdfe;
      }

      .cls-16 {
        fill: #feffff;
      }
    </style>
  </defs>
  <path class="cls-4" d="M604.87,0l33.84,2.11,31.72,8.46,25.38,10.57,25.38,14.8,21.15,19.03,19.03,21.15,16.92,29.61,10.57,27.49,6.34,27.49v54.99l-10.57,35.95-16.92,31.72-21.15,27.49-16.92,16.92-29.61,19.03-23.26,10.57-33.84,10.57h-40.18l-4.23,27.49-12.69,46.53-10.57,25.38-14.8,16.92-16.92,10.57-25.38,4.23h-222.07l-21.15-4.23-19.03-12.69-12.69-16.92-8.46-21.15-14.8-50.76-31.72-120.55-2.11-16.92,8.46-4.23,247.45-2.11-10.57-38.07-2.11-12.69v-31.72l8.46-38.07,10.57-25.38,12.69-23.26,14.8-19.03,19.03-19.03,29.61-19.03,23.26-10.57,35.95-10.57,21.15-2.11Z"/>
  <path class="cls-13" d="M194.57,251.68h249.56l6.34,19.03h-29.61l-2.11,42.3v14.8h78.25l23.26,12.69v8.46l-6.34,54.99,61.33-2.11,6.34-23.26,4.23-12.69,16.92,2.11-4.23,27.49-12.69,46.53-10.57,25.38-14.8,16.92-16.92,10.57-25.38,4.23h-222.07l-21.15-4.23-19.03-12.69-12.69-16.92-8.46-21.15-14.8-50.76-31.72-120.55-2.11-16.92,8.46-4.23Z"/>
  <path class="cls-13" d="M609.1,105.75h14.8l21.15,8.46,12.69,14.8,8.46,16.92,4.23,16.92v50.76l-8.46,25.38-10.57,14.8-16.92,10.57-8.46,2.11h-23.26l-19.03-6.34-10.57-8.46-10.57-19.03-6.34-25.38v-40.18l6.34-27.49,12.69-19.03,14.8-10.57,19.03-4.23Z"/>
  <path class="cls-13" d="M6.34,164.96h95.17l19.03,6.34,12.69,10.57,12.69,21.15,10.57,27.49,31.72,118.44,31.72,120.55,16.92,61.33,12.69,19.03,16.92,6.34,179.77,2.11,90.94,2.11,2.11,2.11v12.69l-2.11,2.11h-268.6l-21.15-6.34-16.92-12.69-10.57-16.92-12.69-40.18-52.87-198.8-21.15-80.37-12.69-25.38-10.57-8.46-14.8-4.23-90.94-2.11-4.23-8.46v-6.34l6.34-2.11Z"/>
  <path class="cls-1" d="M609.1,122.67l19.03,4.23,12.69,14.8,4.23,8.46,2.11,16.92v42.3l-4.23,21.15-10.57,12.69-14.8,6.34h-14.8l-10.57-6.34-10.57-19.03-2.11-10.57v-52.87l6.34-19.03,12.69-14.8,10.57-4.23Z"/>
  <path class="cls-13" d="M494.89,592.18h25.38l16.92,8.46,10.57,12.69,6.34,14.8v21.15l-6.34,14.8-8.46,10.57-12.69,8.46-14.8,4.23-21.15-2.11-12.69-8.46-12.69-14.8-4.23-10.57v-27.49l8.46-14.8,14.8-12.69,10.57-4.23Z"/>
  <path class="cls-13" d="M251.68,592.18h21.15l19.03,8.46,12.69,16.92,4.23,23.26-4.23,19.03-10.57,14.8-12.69,8.46-14.8,4.23-21.15-2.11-19.03-12.69-10.57-19.03-2.11-21.15,6.34-19.03,14.8-14.8,16.92-6.34Z"/>
  <path class="cls-14" d="M313.01,272.82h84.6l2.11,2.11v52.87h-80.37l-4.23-14.8-2.11-21.15v-19.03Z"/>
  <path class="cls-8" d="M418.75,346.85h80.37l-2.11,31.72-4.23,23.26-4.23,2.11h-67.68l-4.23-12.69v-33.84l2.11-10.57Z"/>
  <path class="cls-14" d="M209.38,272.82h82.48l6.34,46.53v8.46h-74.02l-6.34-16.92-8.46-33.84v-4.23Z"/>
  <path class="cls-11" d="M321.47,346.85h76.14l2.11,2.11v52.87l-14.8,2.11h-57.1l-4.23-16.92-2.11-21.15v-19.03Z"/>
  <path class="cls-6" d="M420.87,422.98h65.56l4.23,2.11-4.23,46.53-4.23,8.46h-63.45l-2.11-4.23v-35.95l2.11-14.8,2.11-2.11Z"/>
  <path class="cls-3" d="M329.93,422.98h65.56l4.23,2.11v54.99h-63.45l-2.11-2.11-4.23-31.72v-23.26Z"/>
  <path class="cls-14" d="M230.53,346.85h67.68l4.23,10.57,4.23,31.72v12.69l-16.92,2.11h-44.41l-6.34-14.8-8.46-31.72v-10.57Z"/>
  <path class="cls-7" d="M522.39,344.73l33.84,12.69,29.61,8.46-6.34,27.49-4.23,8.46-4.23,2.11h-57.1v-23.26l4.23-31.72,4.23-4.23Z"/>
  <path class="cls-14" d="M420.87,270.71h31.72l23.26,33.84,10.57,12.69,8.46,6.34v4.23h-76.14l-2.11-14.8,2.11-38.07,2.11-4.23Z"/>
  <path class="cls-12" d="M249.56,422.98h54.99l4.23,2.11,6.34,35.95v19.03h-27.49l-16.92-8.46-10.57-12.69-10.57-29.61v-6.34Z"/>
  <path class="cls-6" d="M522.39,418.75h16.92l4.23,2.11,25.38,2.11-2.11,14.8-8.46,21.15-8.46,10.57-14.8,8.46-10.57,2.11h-16.92l-2.11-2.11,2.11-33.84,4.23-19.03,10.57-6.34Z"/>
  <path class="cls-5" d="M255.91,609.1l19.03,2.11,10.57,8.46,4.23,8.46v23.26l-12.69,14.8-8.46,4.23-21.15-2.11-10.57-10.57-6.34-14.8,2.11-16.92,16.92-14.8,6.34-2.11Z"/>
  <path class="cls-15" d="M507.58,609.1l16.92,4.23,10.57,12.69,2.11,6.34v16.92l-8.46,12.69-14.8,8.46h-14.8l-12.69-8.46-6.34-6.34-2.11-6.34v-21.15l12.69-14.8,16.92-4.23Z"/>
  <path class="cls-9" d="M232.64,348.96l25.38,6.34-4.23,12.69-2.11,12.69,2.11,14.8h35.95l6.34-4.23v-14.8l-2.11-12.69-23.26-6.34,4.23-6.34,21.15-2.11,4.23,2.11,4.23,19.03,2.11,31.72-16.92,2.11h-44.41l-6.34-14.8-6.34-23.26v-16.92Z"/>
  <path class="cls-2" d="M313.01,272.82h84.6l2.11,2.11v52.87h-80.37l-4.23-14.8-2.11-21.15v-19.03ZM336.27,277.05l-12.69,8.46-2.11,16.92,4.23,19.03,4.23,2.11h46.53l10.57-6.34,4.23-6.34v-27.49l-8.46-6.34h-46.53Z"/>
  <path class="cls-2" d="M209.38,272.82h82.48l6.34,46.53v8.46h-74.02l-6.34-16.92-8.46-33.84v-4.23ZM232.64,277.05l-8.46,6.34-2.11,12.69,6.34,23.26,4.23,4.23h44.41l10.57-4.23v-25.38l-4.23-12.69-14.8-4.23h-35.95Z"/>
  <path class="cls-14" d="M321.47,346.85h76.14v2.11l-27.49,4.23,4.23,8.46,6.34,19.03-6.34,10.57-6.34,2.11h-16.92l-6.34-4.23v-12.69l8.46-14.8-10.57-8.46-16.92-2.11,2.11,48.64h-2.11l-4.23-33.84v-19.03Z"/>
  <path class="cls-10" d="M551.99,357.42l33.84,8.46-6.34,27.49-6.34,6.34-4.23,2.11-33.84-2.11,8.46-4.23,4.23-8.46,4.23-29.61Z"/>
  <path class="cls-16" d="M283.4,348.96h12.69l4.23,10.57,4.23,40.18h-16.92l8.46-8.46v-14.8l-2.11-12.69-23.26-6.34,4.23-6.34,8.46-2.11Z"/>
  <path class="cls-16" d="M382.8,274.94h14.8v50.76h-21.15l12.69-14.8v-27.49l-6.34-4.23v-4.23Z"/>
  <path class="cls-16" d="M268.6,274.94h21.15l6.34,50.76h-21.15l2.11-4.23,10.57-2.11-4.23-38.07-14.8-2.11v-4.23Z"/>
  <path class="cls-14" d="M420.87,422.98h65.56l4.23,2.11-2.11,8.46v-6.34l-44.41,2.11-23.26-2.11v12.69h-2.11v-14.8l2.11-2.11Z"/>
  <path class="cls-14" d="M522.39,418.75h16.92l4.23,2.11,25.38,2.11-2.11,8.46v-4.23h-52.87l-2.11,4.23,2.11-8.46,8.46-4.23Z"/>
</svg>