<svg xmlns="http://www.w3.org/2000/svg" width="242.155" height="67.346" viewBox="0 0 242.155 67.346"><defs><style>.a{fill:#446c90;}.b{fill:#6d6e71;fill-rule:evenodd;}</style></defs><g transform="translate(0 29.017)"><g transform="translate(0 0)"><path class="a" d="M80.86,218.043a12.291,12.291,0,0,1,.16-1.278,5.967,5.967,0,0,1,.266-1.012,7.921,7.921,0,0,0,2.424-.719,2.629,2.629,0,0,0,1.2-1.438,16.492,16.492,0,0,0,.692-2.743l3.888-22.478a6.769,6.769,0,0,0,.08-2.423,1.953,1.953,0,0,0-.959-1.332,5.931,5.931,0,0,0-2.317-.613,6.177,6.177,0,0,1-.106-2.29q1.01.054,2.4.107t2.77.053H93.7q1.064,0,3.2-.08t4.1-.08q5.805,0,8.309,3.169t1.438,8.762a12.646,12.646,0,0,1-2.53,5.752,12.971,12.971,0,0,1-4.874,3.782,15.521,15.521,0,0,1-6.5,1.332,11.107,11.107,0,0,1-2.024-.16,4.865,4.865,0,0,1-1.438-.479,3.342,3.342,0,0,1,.106-1.118,3.193,3.193,0,0,1,.373-1.012,9.1,9.1,0,0,0,1.225.266,9.709,9.709,0,0,0,1.491.107,8.492,8.492,0,0,0,5.939-2.1,10.92,10.92,0,0,0,3.116-6.205q.9-4.634-.772-7.191T98.49,184.06a17.542,17.542,0,0,0-1.918.106,14.218,14.218,0,0,0-2.131.426l.852-1.332-4.634,27.058a13.073,13.073,0,0,0-.293,3.089,1.777,1.777,0,0,0,1.012,1.545,10.665,10.665,0,0,0,3.063.8,4.442,4.442,0,0,1,.186,1.038,10.542,10.542,0,0,1-.027,1.252q-1.972-.108-3.462-.133t-3.3-.027q-1.972,0-3.569.027T80.86,218.043Z" transform="translate(-80.86 -180.065)"/><path class="a" d="M139.47,217.587a3.314,3.314,0,0,1-2.61-.959,4.105,4.105,0,0,1-.906-2.69,13.652,13.652,0,0,1,.586-4.022l2.184-7.67a25.857,25.857,0,0,0,.932-3.942q.132-1.224-.586-1.544a6.71,6.71,0,0,0-2.477-.32,4.417,4.417,0,0,1,.027-1.092,3.2,3.2,0,0,1,.293-.932,12.159,12.159,0,0,0,2.051-.479,23.986,23.986,0,0,0,2.317-.852,16.616,16.616,0,0,0,1.758-.853,3.133,3.133,0,0,1,2,2.317,11.419,11.419,0,0,1-.559,4.927l-2.93,10.281a10.092,10.092,0,0,0-.613,3.355.808.808,0,0,0,.879.746,2.816,2.816,0,0,0,1.252-.373,6.356,6.356,0,0,0,1.518-1.172,1.9,1.9,0,0,1,.666.692,2.516,2.516,0,0,1,.293,1.012,15.885,15.885,0,0,1-3.063,2.61A5.609,5.609,0,0,1,139.47,217.587Zm4.634-31.213a2.146,2.146,0,0,1-1.891-.879,2.876,2.876,0,0,1-.347-2.264,4.358,4.358,0,0,1,1.278-2.37,3.142,3.142,0,0,1,2.184-.879,2.275,2.275,0,0,1,1.971.879,2.875,2.875,0,0,1,.32,2.37,4.005,4.005,0,0,1-1.225,2.264A3.274,3.274,0,0,1,144.1,186.374Z" transform="translate(-105.488 -179.29)"/><path class="a" d="M163.562,217.028a3.394,3.394,0,0,1-2.77-1.092,4.748,4.748,0,0,1-.852-3.223q0-.8.08-1.678t.32-2.4q.239-1.518.719-4.048t1.278-6.525q.8-3.994,1.971-9.96a21.033,21.033,0,0,0,.479-3.542q0-1.091-.745-1.358a8.008,8.008,0,0,0-2.45-.267,11.122,11.122,0,0,1,.053-1.119,2.254,2.254,0,0,1,.266-.905,20.832,20.832,0,0,0,2.264-.453,26.529,26.529,0,0,0,2.8-.852,21.615,21.615,0,0,0,2.131-.879,1.617,1.617,0,0,1,1.119,1.119,4.93,4.93,0,0,1,0,2.291q-1.066,6.019-2.157,11.638t-2.158,10.84q-.746,3.782-.905,5.646a5.883,5.883,0,0,0,.107,2.45.853.853,0,0,0,.8.586,2.648,2.648,0,0,0,1.2-.346,6.6,6.6,0,0,0,1.518-1.2,2.8,2.8,0,0,1,.639.772,3.636,3.636,0,0,1,.32.826,14.35,14.35,0,0,1-2.9,2.583A5.629,5.629,0,0,1,163.562,217.028Z" transform="translate(-116.198 -178.73)"/><path class="a" d="M187.644,217.028a3.394,3.394,0,0,1-2.77-1.092,4.748,4.748,0,0,1-.852-3.223q0-.8.08-1.678t.32-2.4q.239-1.518.719-4.048t1.278-6.525q.8-3.994,1.971-9.96a21.049,21.049,0,0,0,.479-3.542q0-1.091-.746-1.358a8.008,8.008,0,0,0-2.45-.267,11.141,11.141,0,0,1,.053-1.119,2.255,2.255,0,0,1,.267-.905,20.832,20.832,0,0,0,2.264-.453,26.527,26.527,0,0,0,2.8-.852,21.612,21.612,0,0,0,2.131-.879,1.618,1.618,0,0,1,1.119,1.119,4.917,4.917,0,0,1,0,2.291q-1.066,6.019-2.157,11.638t-2.158,10.84q-.746,3.782-.905,5.646a5.883,5.883,0,0,0,.107,2.45.853.853,0,0,0,.8.586,2.647,2.647,0,0,0,1.2-.346,6.6,6.6,0,0,0,1.518-1.2,2.791,2.791,0,0,1,.639.772,3.637,3.637,0,0,1,.32.826,14.35,14.35,0,0,1-2.9,2.583A5.629,5.629,0,0,1,187.644,217.028Z" transform="translate(-126.959 -178.73)"/><path class="a" d="M215.282,227.492a7.906,7.906,0,0,1-5.22-1.678,8.2,8.2,0,0,1-2.717-4.554,15.367,15.367,0,0,1,0-6.5,18.246,18.246,0,0,1,2.61-6.605,13.931,13.931,0,0,1,4.581-4.421,11.359,11.359,0,0,1,5.859-1.6,8.072,8.072,0,0,1,5.14,1.571,7.969,7.969,0,0,1,2.743,4.315,14.364,14.364,0,0,1,.107,6.312,18.147,18.147,0,0,1-2.53,6.765,14.709,14.709,0,0,1-4.608,4.687A11,11,0,0,1,215.282,227.492Zm.692-2.557a4.336,4.336,0,0,0,3.009-1.332,12.11,12.11,0,0,0,2.5-3.6,20.342,20.342,0,0,0,1.625-5.14,14.611,14.611,0,0,0-.107-7.3q-.959-2.876-3.409-2.876-2.291,0-4.208,2.636a17.427,17.427,0,0,0-2.77,6.9,20.263,20.263,0,0,0-.373,5.513,7.843,7.843,0,0,0,1.172,3.808A2.966,2.966,0,0,0,215.974,224.935Z" transform="translate(-137.227 -189.194)"/><path class="a" d="M256.371,202.138a3.246,3.246,0,0,1,1.518.905,4.268,4.268,0,0,1,.8,1.731q.292,1.146.666,3.276.532,2.664.959,5.514t.719,5.433q.292,2.584.4,4.5h-.639a31.538,31.538,0,0,0,4.394-6.152,14.9,14.9,0,0,0,1.7-6.1,23.838,23.838,0,0,0-.932-7.4,5.794,5.794,0,0,0,2.93-1.7,2.758,2.758,0,0,1,1.3.666,3.933,3.933,0,0,1,.8,1.625q.346,1.172.826,3.569.586,2.61,1.092,5.486t.905,5.459q.4,2.585.506,4.5h-.639a36.99,36.99,0,0,0,5.034-7.51,13.3,13.3,0,0,0,1.518-5.273,4.715,4.715,0,0,0-.826-3.063,3.821,3.821,0,0,0-2.583-1.2,3.184,3.184,0,0,1-.293-.933,4.036,4.036,0,0,1-.027-1.038q.959-.265,2-.666t1.944-.852a9.259,9.259,0,0,0,1.332-.772,4.557,4.557,0,0,1,2.343,1.837,6.769,6.769,0,0,1,.852,3.7,13.352,13.352,0,0,1-.985,4.634,28.993,28.993,0,0,1-3.622,6.285,83.142,83.142,0,0,1-7.7,8.9,5.017,5.017,0,0,1-1.359-.08,4.768,4.768,0,0,1-1.2-.4q-.214-2.823-.506-5.38t-.639-4.768q-.348-2.21-.772-3.967l1.331-.853a34,34,0,0,1-1.3,4.1,21.525,21.525,0,0,1-1.811,3.542,29.426,29.426,0,0,1-2.716,3.6q-1.626,1.865-3.969,4.208a5.014,5.014,0,0,1-1.358-.08,4.78,4.78,0,0,1-1.2-.4q-.319-4.954-1.038-9.534t-1.518-7.83a6.812,6.812,0,0,0-1.119-2.663q-.639-.746-2.717-.639c0-.142.018-.444.054-.906a4.123,4.123,0,0,1,.213-1.118,8.4,8.4,0,0,0,1.918-.479q1.011-.372,1.944-.826A7.905,7.905,0,0,0,256.371,202.138Z" transform="translate(-156.788 -189.194)"/><path class="a" d="M327.614,202.138a15.347,15.347,0,0,1,3.835.479,10.586,10.586,0,0,1,3.036,1.225,20.32,20.32,0,0,0-1.012,5.752,4.1,4.1,0,0,1-1.2.373,8.843,8.843,0,0,1-1.412.107q0-3.143-.906-4.288a3.254,3.254,0,0,0-2.717-1.145,3.932,3.932,0,0,0-2.37.613,2.6,2.6,0,0,0-1.039,1.518,2.809,2.809,0,0,0,.32,2.131,8.7,8.7,0,0,0,1.652,2q1.065.987,2.264,2.051a19.686,19.686,0,0,1,2.211,2.317,8.679,8.679,0,0,1,1.518,2.849,7.081,7.081,0,0,1,.08,3.622,6.684,6.684,0,0,1-1.491,3.2,6.961,6.961,0,0,1-2.77,1.918,10.6,10.6,0,0,1-3.835.639,13.293,13.293,0,0,1-4.368-.666,13.594,13.594,0,0,1-3.036-1.412,22.274,22.274,0,0,0,.666-3.142q.187-1.438.24-2.664a4.922,4.922,0,0,1,2.557-.479,8.094,8.094,0,0,0,.8,4.262q.906,1.651,3.463,1.651a4.286,4.286,0,0,0,2.476-.613,2.547,2.547,0,0,0,1.092-1.572,3.2,3.2,0,0,0-.559-2.53,14.911,14.911,0,0,0-2.184-2.45q-1.359-1.251-2.663-2.717a11.385,11.385,0,0,1-2.051-3.275,7.805,7.805,0,0,1,1.092-7.191,6.406,6.406,0,0,1,2.583-1.891A9.65,9.65,0,0,1,327.614,202.138Z" transform="translate(-186.104 -189.194)"/><path class="a" d="M353.648,242.312a3.117,3.117,0,0,1-2.62-1.15,3.414,3.414,0,0,1-.511-2.941,3.732,3.732,0,0,1,1.246-2.14,3.44,3.44,0,0,1,2.333-.863,3,3,0,0,1,1.758.511,3.207,3.207,0,0,1,1.119,1.407,3.293,3.293,0,0,1,.128,2.045,4.066,4.066,0,0,1-1.151,2.269A3.183,3.183,0,0,1,353.648,242.312Z" transform="translate(-201.312 -203.983)"/><path class="a" d="M377.044,227.492a5.76,5.76,0,0,1-3.782-1.145,6.057,6.057,0,0,1-1.944-3.063,13.412,13.412,0,0,1-.479-4.235,24.764,24.764,0,0,1,.612-4.66,22.882,22.882,0,0,1,1.651-4.848,15.628,15.628,0,0,1,2.583-3.888,11.133,11.133,0,0,1,3.516-2.583,10.655,10.655,0,0,1,4.554-.932,11.845,11.845,0,0,1,2.77.32,5.915,5.915,0,0,1,2.184.959q-.427,1.332-.746,2.823t-.479,2.93a4.236,4.236,0,0,1-2.556.212,6.131,6.131,0,0,0-.453-3.648,2.357,2.357,0,0,0-2.1-.986,4.163,4.163,0,0,0-3.169,1.332,9.4,9.4,0,0,0-1.971,3.382,26.028,26.028,0,0,0-1.092,4.235,34.122,34.122,0,0,0-.373,3.435,13.19,13.19,0,0,0,.186,3.3,4.793,4.793,0,0,0,1.172,2.45,3.307,3.307,0,0,0,2.53.933,6.055,6.055,0,0,0,3.036-.853,11.62,11.62,0,0,0,2.77-2.237,2.1,2.1,0,0,1,.666.639,6.375,6.375,0,0,1,.453.853,13.579,13.579,0,0,1-4.66,4.022A11,11,0,0,1,377.044,227.492Z" transform="translate(-210.438 -189.194)"/><path class="a" d="M414.481,227.492a7.909,7.909,0,0,1-5.22-1.678,8.209,8.209,0,0,1-2.716-4.554,15.347,15.347,0,0,1,0-6.5,18.264,18.264,0,0,1,2.61-6.605,13.93,13.93,0,0,1,4.581-4.421,11.36,11.36,0,0,1,5.859-1.6,8.071,8.071,0,0,1,5.14,1.571,7.973,7.973,0,0,1,2.743,4.315,14.374,14.374,0,0,1,.106,6.312,18.138,18.138,0,0,1-2.53,6.765,14.713,14.713,0,0,1-4.607,4.687A11,11,0,0,1,414.481,227.492Zm.692-2.557a4.335,4.335,0,0,0,3.009-1.332,12.1,12.1,0,0,0,2.5-3.6,20.325,20.325,0,0,0,1.625-5.14,14.616,14.616,0,0,0-.106-7.3q-.96-2.876-3.409-2.876-2.29,0-4.208,2.636a17.443,17.443,0,0,0-2.77,6.9,20.289,20.289,0,0,0-.373,5.513,7.836,7.836,0,0,0,1.172,3.808A2.964,2.964,0,0,0,415.174,224.935Z" transform="translate(-226.242 -189.194)"/><path class="a" d="M482.372,227.492a2.881,2.881,0,0,1-2.4-.879,4.076,4.076,0,0,1-.586-2.769,34.447,34.447,0,0,1,.746-4.927l1.385-6.072a17.591,17.591,0,0,0,.666-5.246q-.187-1.571-1.358-1.572a5.474,5.474,0,0,0-3.116,1.572,16.706,16.706,0,0,0-3.648,4.687,26.879,26.879,0,0,0-2.717,7.8l-1.331,6.924H465.22l2.45-11.985a44.076,44.076,0,0,0,.932-5.646,5.883,5.883,0,0,0-.213-2.636,1.145,1.145,0,0,0-1.092-.719,5.19,5.19,0,0,0-3.117,1.651,17.584,17.584,0,0,0-3.515,4.767,27.548,27.548,0,0,0-2.583,7.644l-1.332,6.924H451.9l2.93-15.5a19.323,19.323,0,0,0,.453-3.569,1.278,1.278,0,0,0-.772-1.332,8.026,8.026,0,0,0-2.45-.266,4.178,4.178,0,0,1,.027-1.039,3.218,3.218,0,0,1,.293-.985,19.651,19.651,0,0,0,2.237-.453,27.412,27.412,0,0,0,2.77-.852,21.626,21.626,0,0,0,2.13-.879,1.618,1.618,0,0,1,1.119,1.119,5.146,5.146,0,0,1,0,2.343,36.355,36.355,0,0,1-.879,3.782,25.137,25.137,0,0,1-1.039,2.823h.054l.8-1.758a14.831,14.831,0,0,1,1.572-2.583,21.252,21.252,0,0,1,2.4-2.717,13.428,13.428,0,0,1,2.876-2.13,6.169,6.169,0,0,1,2.957-.826,4.148,4.148,0,0,1,2.184.613,3.846,3.846,0,0,1,1.544,1.944,6.6,6.6,0,0,1,.16,3.516,18.754,18.754,0,0,1-1.172,3.941h.054l.8-1.758a12.656,12.656,0,0,1,1.625-2.637,21.232,21.232,0,0,1,2.53-2.716,14.619,14.619,0,0,1,3.009-2.131,6.571,6.571,0,0,1,3.063-.826,3.626,3.626,0,0,1,3.622,2.823q.958,2.824-.267,7.671l-1.6,6.232q-.586,2.237-.746,3.3a2.4,2.4,0,0,0,.027,1.358.726.726,0,0,0,.666.294,2.844,2.844,0,0,0,1.411-.373,9.856,9.856,0,0,0,1.625-1.225,2.793,2.793,0,0,1,.64.772,2.5,2.5,0,0,1,.266.932,12.514,12.514,0,0,1-3.2,2.717A6.637,6.637,0,0,1,482.372,227.492Z" transform="translate(-246.661 -189.194)"/></g></g><g transform="translate(67.212)"><path class="b" d="M218.364,135.42a18.55,18.55,0,0,1-4.24-1.568,52.618,52.618,0,0,1-9.953-6.737c-.3-.247-.589-.5-.883-.756-.014-.013-.017-.04-.027-.069,3.465,2.165,6.849,4.478,10.945,5.326a1.91,1.91,0,0,0,.362,0c-.127-.264-.247-.48-.337-.709-.215-.544-.008-.876.567-.939a7.516,7.516,0,0,1,2.773.352,27.01,27.01,0,0,1,5.343,2.024,36.608,36.608,0,0,0,9.906,3.334,42.536,42.536,0,0,0,6.613.74,36.181,36.181,0,0,0,8.5-.609c1.954-.4,3.89-.889,5.85-1.252a36,36,0,0,1,3.936-.472c1.433-.1,2.875-.176,4.311-.144,6.191.139,12.018,1.546,17.182,5.131.765.531,1.466,1.153,2.2,1.734l-.065.093c-.567-.246-1.13-.5-1.7-.737a38.526,38.526,0,0,0-10.027-2.662,39.424,39.424,0,0,0-6.956-.3,42.063,42.063,0,0,0-13.175,2.719,14.885,14.885,0,0,1-2.836.658,27.887,27.887,0,0,1-5.263.394,35.75,35.75,0,0,1-10.3-1.735,43.8,43.8,0,0,1-11.057-5.286,5.956,5.956,0,0,0-1.541-.656c-.524-.164-.854.176-.694.7C217.945,134.463,218.16,134.913,218.364,135.42Z" transform="translate(-202.755 -126.291)"/><path class="b" d="M250.826,156.514c-.912.067-1.705.155-2.5.179-1.172.035-2.351.085-3.518.017-1.468-.086-2.938-.232-4.393-.448a45.621,45.621,0,0,1-10.367-2.86,55.5,55.5,0,0,1-16.712-10.707,75.459,75.459,0,0,1-10.907-12.6.462.462,0,0,1-.082-.169c.68.835,1.341,1.686,2.043,2.5,8.355,9.735,18.544,16.62,31.016,19.953a55.7,55.7,0,0,0,8.008,1.506,59.429,59.429,0,0,0,8.039.395,5.508,5.508,0,0,1,2.446.467c.822.38.978.967.414,1.679a10.751,10.751,0,0,1-.924.928,2.151,2.151,0,0,0-.265.262c-.211.294-.128.567.231.592a6.067,6.067,0,0,0,1.444-.062,43.61,43.61,0,0,0,11.172-3.774c2.155-1.02,4.288-2.087,6.53-3.181-.692.619-1.3,1.195-1.939,1.73A30.33,30.33,0,0,1,259.385,159a25.256,25.256,0,0,1-7.792.829,6.366,6.366,0,0,1-1.714-.345.869.869,0,0,1-.49-1.472,10.5,10.5,0,0,1,1.027-1.133C250.518,156.775,250.634,156.686,250.826,156.514Z" transform="translate(-202.346 -127.916)"/><path class="b" d="M248.88,148.482c2.535.469,5.063.984,7.608,1.391,1.673.266,3.366.433,5.057.543q3.343.217,6.7.266c1.886.025,3.776-.012,5.658-.119,2.068-.117,4.14-.267,6.194-.546q4.314-.586,8.6-1.392a112.554,112.554,0,0,0,16.851-4.692,131.592,131.592,0,0,0,16.291-7.036c3.1-1.608,6.146-3.338,9.219-5.013a.191.191,0,0,1,.165-.018c-.622.463-1.238.938-1.867,1.39a103.657,103.657,0,0,1-31.706,15.295,79.207,79.207,0,0,1-9.845,2.223q-3.2.5-6.414.85c-1.476.165-2.964.245-4.448.318-1.423.071-2.85.145-4.273.109q-3.274-.083-6.546-.323a80.785,80.785,0,0,1-17.128-3.269.846.846,0,0,1-.1-.049C248.889,148.434,248.883,148.458,248.88,148.482Z" transform="translate(-223.149 -128.778)"/><path class="b" d="M330.474,163.641c-.242.542-.491,1.082-.727,1.628a25.082,25.082,0,0,0-1.641,4.655,5.456,5.456,0,0,0-.092,1.549.573.573,0,0,0,.849.5,5.532,5.532,0,0,0,1.405-.765c1.267-1.02,2.473-2.112,3.735-3.139,1.8-1.468,3.634-2.9,5.458-4.345a5.2,5.2,0,0,1,.644-.382,2.71,2.71,0,0,1,.266-.1c-.045.091-.052.135-.08.161a101.138,101.138,0,0,1-10.456,9.177,27.163,27.163,0,0,1-2.9,1.781,3.181,3.181,0,0,1-1.185.283.546.546,0,0,1-.654-.595,5.853,5.853,0,0,1,.177-1.548,26.027,26.027,0,0,1,2.613-5.672,31.763,31.763,0,0,1,1.938-2.751,3.381,3.381,0,0,1,.584-.5Z" transform="translate(-257.221 -142.812)"/></g></svg>