<?xml version="1.0" encoding="UTF-8"?>
<svg id="Layer_1" xmlns="http://www.w3.org/2000/svg" viewBox="0 0 1612.71 1670.97">
  <defs>
    <style>
      .cls-1 {
        fill: #fdd9a3;
      }

      .cls-2 {
        fill: #eff8fc;
      }

      .cls-3 {
        fill: #f2f9fd;
      }

      .cls-4 {
        fill: #f7fbfd;
      }

      .cls-5 {
        fill: #f9fcfe;
      }

      .cls-6 {
        fill: #fed89e;
      }

      .cls-7 {
        fill: #fbfdfd;
      }

      .cls-8 {
        fill: #fbfdfe;
      }

      .cls-9 {
        fill: #e2f2fa;
      }

      .cls-10 {
        fill: #e1f1fa;
      }

      .cls-11 {
        fill: #f3f9fd;
      }

      .cls-12 {
        fill: #fcfefe;
      }

      .cls-13 {
        fill: #fafdfe;
      }

      .cls-14 {
        fill: #f9fcfd;
      }

      .cls-15 {
        fill: #113160;
      }

      .cls-16 {
        fill: #e0f1fa;
      }

      .cls-17 {
        fill: #fcfdfe;
      }

      .cls-18 {
        fill: #feffff;
      }

      .cls-19 {
        fill: #fcfdfd;
      }
    </style>
  </defs>
  <path class="cls-6" d="M1556.46,0l10,.62,9.38,2.5,7.5,3.12,7.5,4.38,6.25,5.62,5.62,6.25,5,8.75,3.12,8.12,1.88,8.12v16.25l-3.12,10.62-5,9.38-6.25,8.12-5,5-8.75,5.62-6.88,3.12-10,3.12h-11.88l-1.25,8.12-3.75,13.75-3.12,7.5-4.38,5-5,3.12-7.5,1.25h-65.62l-6.25-1.25-5.62-3.75-3.75-5-2.5-6.25-4.38-15-9.38-35.62-.62-5,2.5-1.25,73.12-.62-3.12-11.25-.62-3.75v-9.38l2.5-11.25,3.12-7.5,3.75-6.88,4.38-5.62,5.62-5.62,8.75-5.62,6.88-3.12,10.62-3.12,6.25-.62Z"/>
  <path class="cls-15" d="M1435.21,74.38h73.75l1.88,5.62h-8.75l-.62,12.5v4.38h23.12l6.88,3.75v2.5l-1.88,16.25,18.12-.62,1.88-6.88,1.25-3.75,5,.62-1.25,8.12-3.75,13.75-3.12,7.5-4.38,5-5,3.12-7.5,1.25h-65.62l-6.25-1.25-5.62-3.75-3.75-5-2.5-6.25-4.38-15-9.38-35.62-.62-5,2.5-1.25Z"/>
  <path class="cls-16" d="M218.8,1115.37h44.25l36.88,9.83,29.5,17.21,24.58,22.13,19.67,24.58,12.29,27.04,7.38,29.5v46.71l-7.38,29.5-17.21,31.96-22.13,24.58-19.67,17.21-34.42,17.21-34.42,7.38h-31.96l-34.42-7.38-34.42-17.21-27.04-22.13-19.67-27.04-12.29-24.58-7.38-29.5v-44.25l4.92-24.58,12.29-29.5,17.21-24.58,12.29-14.75,29.5-22.13,29.5-12.29,22.13-4.92Z"/>
  <path class="cls-16" d="M132.75,1442.34h223.72l29.5,7.38,27.04,14.75,24.58,22.13,17.21,22.13,17.21,36.88,7.38,29.5,2.46,63.92-2.46,31.96-27.04-4.92-49.17-17.21-51.63-19.67-41.79-22.13-31.96-24.58-39.33-39.33-22.13-27.04-19.67-27.04-2.46-14.75h-78.67l-24.58,9.83-22.13,17.21-19.67,22.13-14.75,29.5-7.38,29.5-2.46,22.13-2.46,63.92H2.46l-2.46-9.83v-34.42l2.46-41.79,9.83-41.79,19.67-36.88,22.13-24.58,17.21-14.75,34.42-17.21,27.04-4.92Z"/>
  <path class="cls-15" d="M218.8,1115.37h44.25l36.88,9.83,29.5,17.21,24.58,22.13,19.67,24.58,12.29,27.04,7.38,29.5v46.71l-7.38,29.5-17.21,31.96-22.13,24.58-19.67,17.21-34.42,17.21-34.42,7.38h-31.96l-34.42-7.38-34.42-17.21-27.04-22.13-19.67-27.04-12.29-24.58-7.38-29.5v-44.25l4.92-24.58,12.29-29.5,17.21-24.58,12.29-14.75,29.5-22.13,29.5-12.29,22.13-4.92ZM218.8,1142.41l-29.5,9.83-27.04,17.21-22.13,22.13-14.75,24.58-7.38,22.13-2.46,12.29v36.88l7.38,24.58,14.75,27.04,22.13,24.58,24.58,17.21,27.04,9.83,19.67,2.46h24.58l39.33-9.83,27.04-17.21,22.13-24.58,17.21-34.42,4.92-22.13v-36.88l-9.83-31.96-14.75-24.58-17.21-19.67-34.42-22.13-29.5-7.38h-41.79Z"/>
  <path class="cls-15" d="M1557.71,31.25h4.38l6.25,2.5,3.75,4.38,2.5,5,1.25,5v15l-2.5,7.5-3.12,4.38-5,3.12-2.5.62h-6.88l-5.62-1.88-3.12-2.5-3.12-5.62-1.88-7.5v-11.88l1.88-8.12,3.75-5.62,4.38-3.12,5.62-1.25Z"/>
  <path class="cls-15" d="M1379.58,48.75h28.12l5.62,1.88,3.75,3.12,3.75,6.25,3.12,8.12,9.38,35,9.38,35.62,5,18.12,3.75,5.62,5,1.88,53.12.62,26.88.62.62.62v3.75l-.62.62h-79.38l-6.25-1.88-5-3.75-3.12-5-3.75-11.88-15.62-58.75-6.25-23.75-3.75-7.5-3.12-2.5-4.38-1.25-26.88-.62-1.25-2.5v-1.88l1.88-.62Z"/>
  <path class="cls-15" d="M132.75,1442.34h223.72l29.5,7.38,27.04,14.75,24.58,22.13,17.21,22.13,17.21,36.88,7.38,29.5,2.46,63.92-2.46,31.96-17.21-2.46-4.92-73.75-7.38-39.33-17.21-34.42-22.13-24.58-27.04-17.21-27.04-7.38H127.84l-31.96,9.83-24.58,17.21-22.13,24.58-14.75,29.5-7.38,29.5-2.46,22.13-2.46,63.92H2.46l-2.46-9.83v-34.42l2.46-41.79,9.83-41.79,19.67-36.88,22.13-24.58,17.21-14.75,34.42-17.21,27.04-4.92Z"/>
  <path class="cls-19" d="M194.22,1147.33h14.75l-9.83,4.92-2.46,12.29-19.67,27.04-14.75,24.58-7.38,27.04v31.96l9.83,31.96,17.21,22.13,27.04,19.67,12.29,7.38,29.5,4.92,46.71-4.92,24.58-4.92-14.75,19.67-19.67,12.29-39.33,9.83h-24.58l-27.04-4.92-24.58-9.83-22.13-17.21-22.13-24.58-14.75-29.5-4.92-19.67v-36.88l7.38-27.04,12.29-24.58,22.13-24.58,27.04-19.67,17.21-7.38Z"/>
  <path class="cls-1" d="M1557.71,36.25l5.62,1.25,3.75,4.38,1.25,2.5.62,5v12.5l-1.25,6.25-3.12,3.75-4.38,1.88h-4.38l-3.12-1.88-3.12-5.62-.62-3.12v-15.62l1.88-5.62,3.75-4.38,3.12-1.25Z"/>
  <path class="cls-15" d="M1523.96,175h7.5l5,2.5,3.12,3.75,1.88,4.38v6.25l-1.88,4.38-2.5,3.12-3.75,2.5-4.38,1.25-6.25-.62-3.75-2.5-3.75-4.38-1.25-3.12v-8.12l2.5-4.38,4.38-3.75,3.12-1.25Z"/>
  <path class="cls-15" d="M1452.08,175h6.25l5.62,2.5,3.75,5,1.25,6.88-1.25,5.62-3.12,4.38-3.75,2.5-4.38,1.25-6.25-.62-5.62-3.75-3.12-5.62-.62-6.25,1.88-5.62,4.38-4.38,5-1.88Z"/>
  <path class="cls-16" d="M1470.21,80.62h25l.62.62v15.62h-23.75l-1.25-4.38-.62-6.25v-5.62Z"/>
  <path class="cls-10" d="M1501.46,102.5h23.75l-.62,9.38-1.25,6.88-1.25.62h-20l-1.25-3.75v-10l.62-3.12Z"/>
  <path class="cls-16" d="M1439.58,80.62h24.38l1.88,13.75v2.5h-21.88l-1.88-5-2.5-10v-1.25Z"/>
  <path class="cls-13" d="M1472.71,102.5h22.5l.62.62v15.62l-4.38.62h-16.88l-1.25-5-.62-6.25v-5.62Z"/>
  <path class="cls-15" d="M570.35,1021.95h41.79l41.79,2.46,7.38,4.92-4.92,17.21-22.13,27.04-22.13,22.13-12.29,14.75,12.29,4.92,36.88,4.92,2.46,2.46v14.75l-2.46,2.46-54.09-2.46-29.5-4.92-4.92-4.92,2.46-9.83,17.21-22.13,24.58-24.58,19.67-27.04-39.33-2.46-14.75-2.46-2.46-14.75,2.46-2.46Z"/>
  <path class="cls-8" d="M1502.08,125h19.38l1.25.62-1.25,13.75-1.25,2.5h-18.75l-.62-1.25v-10.62l.62-4.38.62-.62Z"/>
  <path class="cls-5" d="M1475.21,125h19.38l1.25.62v16.25h-18.75l-.62-.62-1.25-9.38v-6.88Z"/>
  <path class="cls-16" d="M1445.83,102.5h20l1.25,3.12,1.25,9.38v3.75l-5,.62h-13.12l-1.88-4.38-2.5-9.38v-3.12Z"/>
  <path class="cls-15" d="M523.64,1191.58l44.25,4.92,31.96,7.38,2.46,9.83-17.21,19.67-19.67,19.67-17.21,14.75-4.92,9.83,31.96,2.46,12.29,4.92v14.75h-31.96l-39.33-7.38-9.83-4.92,2.46-12.29,17.21-19.67,19.67-17.21,12.29-12.29v-4.92l-34.42-9.83-4.92-14.75,4.92-4.92Z"/>
  <path class="cls-15" d="M491.69,1053.91l4.92,2.46-4.92,24.58-22.13,39.33-9.83,17.21,46.71-2.46v17.21l-14.75,4.92-36.88,7.38h-22.13l-7.38-7.38,12.29-29.5,22.13-39.33v-7.38l-17.21,2.46h-24.58l-4.92-12.29,2.46-4.92,54.09-9.83,22.13-2.46Z"/>
  <path class="cls-9" d="M1532.08,101.88l10,3.75,8.75,2.5-1.88,8.12-1.25,2.5-1.25.62h-16.88v-6.88l1.25-9.38,1.25-1.25Z"/>
  <path class="cls-16" d="M1502.08,80h9.38l6.88,10,3.12,3.75,2.5,1.88v1.25h-22.5l-.62-4.38.62-11.25.62-1.25Z"/>
  <path class="cls-14" d="M1451.46,125h16.25l1.25.62,1.88,10.62v5.62h-8.12l-5-2.5-3.12-3.75-3.12-8.75v-1.88Z"/>
  <path class="cls-8" d="M1532.08,123.75h5l1.25.62,7.5.62-.62,4.38-2.5,6.25-2.5,3.12-4.38,2.5-3.12.62h-5l-.62-.62.62-10,1.25-5.62,3.12-1.88Z"/>
  <path class="cls-7" d="M1453.33,180l5.62.62,3.12,2.5,1.25,2.5v6.88l-3.75,4.38-2.5,1.25-6.25-.62-3.12-3.12-1.88-4.38.62-5,5-4.38,1.88-.62Z"/>
  <path class="cls-17" d="M1527.71,180l5,1.25,3.12,3.75.62,1.88v5l-2.5,3.75-4.38,2.5h-4.38l-3.75-2.5-1.88-1.88-.62-1.88v-6.25l3.75-4.38,5-1.25Z"/>
  <path class="cls-11" d="M1446.46,103.12l7.5,1.88-1.25,3.75-.62,3.75.62,4.38h10.62l1.88-1.25v-4.38l-.62-3.75-6.88-1.88,1.25-1.88,6.25-.62,1.25.62,1.25,5.62.62,9.38-5,.62h-13.12l-1.88-4.38-1.88-6.88v-5Z"/>
  <path class="cls-2" d="M1470.21,80.62h25l.62.62v15.62h-23.75l-1.25-4.38-.62-6.25v-5.62ZM1477.08,81.88l-3.75,2.5-.62,5,1.25,5.62,1.25.62h13.75l3.12-1.88,1.25-1.88v-8.12l-2.5-1.88h-13.75Z"/>
  <path class="cls-2" d="M1439.58,80.62h24.38l1.88,13.75v2.5h-21.88l-1.88-5-2.5-10v-1.25ZM1446.46,81.88l-2.5,1.88-.62,3.75,1.88,6.88,1.25,1.25h13.12l3.12-1.25v-7.5l-1.25-3.75-4.38-1.25h-10.62Z"/>
  <path class="cls-16" d="M1472.71,102.5h22.5v.62l-8.12,1.25,1.25,2.5,1.88,5.62-1.88,3.12-1.88.62h-5l-1.88-1.25v-3.75l2.5-4.38-3.12-2.5-5-.62.62,14.38h-.62l-1.25-10v-5.62Z"/>
  <path class="cls-12" d="M1540.83,105.62l10,2.5-1.88,8.12-1.88,1.88-1.25.62-10-.62,2.5-1.25,1.25-2.5,1.25-8.75Z"/>
  <path class="cls-4" d="M297.47,1159.62l12.29,2.46,22.13,17.21,19.67,27.04,12.29,29.5,2.46,12.29v36.88l-7.38,29.5-4.92,9.83h-4.92l4.92-24.58,2.46-17.21v-27.04l-12.29-36.88-14.75-27.04-17.21-17.21-14.75-12.29v-2.46Z"/>
  <path class="cls-18" d="M1461.46,103.12h3.75l1.25,3.12,1.25,11.88h-5l2.5-2.5v-4.38l-.62-3.75-6.88-1.88,1.25-1.88,2.5-.62Z"/>
  <path class="cls-18" d="M1490.83,81.25h4.38v15h-6.25l3.75-4.38v-8.12l-1.88-1.25v-1.25Z"/>
  <path class="cls-18" d="M1457.08,81.25h6.25l1.88,15h-6.25l.62-1.25,3.12-.62-1.25-11.25-4.38-.62v-1.25Z"/>
  <path class="cls-16" d="M1502.08,125h19.38l1.25.62-.62,2.5v-1.88l-13.12.62-6.88-.62v3.75h-.62v-4.38l.62-.62Z"/>
  <path class="cls-16" d="M1532.08,123.75h5l1.25.62,7.5.62-.62,2.5v-1.25h-15.62l-.62,1.25.62-2.5,2.5-1.25Z"/>
  <path class="cls-3" d="M413.02,1503.8l9.83,2.46,14.75,19.67-2.46,9.83-22.13-29.5v-2.46Z"/>
</svg>