<?xml version="1.0" encoding="UTF-8"?>
<svg id="Layer_1" xmlns="http://www.w3.org/2000/svg" viewBox="0 0 1643.88 1602.8">
  <defs>
    <style>
      .cls-1 {
        fill: #fdd9a3;
      }

      .cls-2 {
        fill: #eff8fc;
      }

      .cls-3 {
        fill: #f2f9fd;
      }

      .cls-4 {
        fill: #f7fbfd;
      }

      .cls-5 {
        fill: #fcfefd;
      }

      .cls-6 {
        fill: #f1f9fc;
      }

      .cls-7 {
        fill: #f9fcfe;
      }

      .cls-8 {
        fill: #f7fcfd;
      }

      .cls-9 {
        fill: #fed89e;
      }

      .cls-10 {
        fill: #fbfdfd;
      }

      .cls-11 {
        fill: #fbfdfe;
      }

      .cls-12 {
        fill: #e2f2fa;
      }

      .cls-13 {
        fill: #e1f1fa;
      }

      .cls-14 {
        fill: #f3f9fd;
      }

      .cls-15 {
        fill: #fcfefe;
      }

      .cls-16 {
        fill: #f5fafd;
      }

      .cls-17 {
        fill: #fafdfe;
      }

      .cls-18 {
        fill: #f9fcfd;
      }

      .cls-19 {
        fill: #113160;
      }

      .cls-20 {
        fill: #e0f1fa;
      }

      .cls-21 {
        fill: #fcfdfe;
      }

      .cls-22 {
        fill: #feffff;
      }

      .cls-23 {
        fill: #fcfdfd;
      }

      .cls-24 {
        fill: #f4fafd;
      }
    </style>
  </defs>
  <path class="cls-9" d="M1587.63,0l10,.62,9.38,2.5,7.5,3.12,7.5,4.38,6.25,5.62,5.62,6.25,5,8.75,3.12,8.12,1.88,8.12v16.25l-3.12,10.62-5,9.38-6.25,8.12-5,5-8.75,5.62-6.88,3.12-10,3.12h-11.88l-1.25,8.12-3.75,13.75-3.12,7.5-4.38,5-5,3.12-7.5,1.25h-65.62l-6.25-1.25-5.62-3.75-3.75-5-2.5-6.25-4.38-15-9.38-35.62-.62-5,2.5-1.25,73.12-.62-3.12-11.25-.62-3.75v-9.38l2.5-11.25,3.12-7.5,3.75-6.88,4.38-5.62,5.62-5.62,8.75-5.62,6.88-3.12,10.62-3.12,6.25-.62Z"/>
  <path class="cls-20" d="M184.47,1077.06l36.89,2.31,36.89,9.22,39.2,20.75,23.06,18.45,20.75,20.75,20.75,32.28,13.84,32.28,9.22,39.2v36.89l-9.22,39.2-16.14,36.89-20.75,29.98-23.06,23.06-23.06,16.14-32.28,16.14-34.59,9.22-13.84,2.31h-41.51l-32.28-6.92-29.98-11.53-27.67-16.14-29.98-25.36-18.45-23.06-20.75-39.2-11.53-39.2v-53.04l6.92-32.28,13.84-34.59,16.14-25.36,23.06-27.67,32.28-23.06,32.28-16.14,34.59-9.22,25.36-2.31Z"/>
  <path class="cls-19" d="M1466.38,74.38h73.75l1.88,5.62h-8.75l-.62,12.5v4.38h23.12l6.88,3.75v2.5l-1.88,16.25,18.12-.62,1.88-6.88,1.25-3.75,5,.62-1.25,8.12-3.75,13.75-3.12,7.5-4.38,5-5,3.12-7.5,1.25h-65.62l-6.25-1.25-5.62-3.75-3.75-5-2.5-6.25-4.38-15-9.38-35.62-.62-5,2.5-1.25Z"/>
  <path class="cls-20" d="M1158.26,48.75h11.25l9.38,2.5,7.5,4.38,6.25,5.62,5,6.25,3.12,6.88,1.88,7.5v11.88l-1.88,7.5-4.38,8.12-5.62,6.25-5,4.38-8.75,4.38-8.75,1.88h-8.12l-8.75-1.88-8.75-4.38-6.88-5.62-5-6.88-3.12-6.25-1.88-7.5v-11.25l1.25-6.25,3.12-7.5,4.38-6.25,3.12-3.75,7.5-5.62,7.5-3.12,5.62-1.25Z"/>
  <path class="cls-20" d="M1136.38,131.88h56.88l7.5,1.88,6.88,3.75,6.25,5.62,4.38,5.62,4.38,9.38,1.88,7.5.62,16.25-.62,8.12-6.88-1.25-12.5-4.38-13.12-5-10.62-5.62-8.12-6.25-10-10-5.62-6.88-5-6.88-.62-3.75h-20l-6.25,2.5-5.62,4.38-5,5.62-3.75,7.5-1.88,7.5-.62,5.62-.62,16.25h-5l-.62-2.5v-8.75l.62-10.62,2.5-10.62,5-9.38,5.62-6.25,4.38-3.75,8.75-4.38,6.88-1.25Z"/>
  <path class="cls-19" d="M184.47,1077.06l36.89,2.31,36.89,9.22,39.2,20.75,23.06,18.45,20.75,20.75,20.75,32.28,13.84,32.28,9.22,39.2v36.89l-9.22,39.2-16.14,36.89-20.75,29.98-23.06,23.06-23.06,16.14-32.28,16.14-34.59,9.22-13.84,2.31h-41.51l-32.28-6.92-29.98-11.53-27.67-16.14-29.98-25.36-18.45-23.06-20.75-39.2-11.53-39.2v-53.04l6.92-32.28,13.84-34.59,16.14-25.36,23.06-27.67,32.28-23.06,32.28-16.14,34.59-9.22,25.36-2.31ZM172.94,1102.43l-36.89,9.22-36.89,18.45-23.06,20.75-20.75,20.75-16.14,27.67-9.22,25.36-4.61,25.36v41.51l6.92,32.28,18.45,36.89,16.14,20.75,20.75,20.75,25.36,16.14,27.67,11.53,32.28,6.92h39.2l36.89-9.22,36.89-18.45,23.06-18.45,18.45-20.75,18.45-32.28,9.22-29.98,2.31-20.75v-32.28l-6.92-36.89-11.53-27.67-20.75-29.98-16.14-16.14-27.67-20.75-29.98-13.84-32.28-6.92h-39.2Z"/>
  <path class="cls-5" d="M159.11,1104.73h43.81l-6.92,2.31-2.31,6.92-25.36,13.84-36.89,20.75-29.98,29.98-16.14,23.06-9.22,23.06-4.61,34.59,2.31,32.28,6.92,23.06,18.45,27.67,20.75,23.06,25.36,18.45,32.28,13.84,16.14,4.61h32.28l32.28-6.92,27.67-11.53,36.89-18.45,2.31,6.92-16.14,18.45-25.36,20.75-34.59,16.14-36.89,9.22h-39.2l-39.2-9.22-36.89-18.45-27.67-25.36-16.14-18.45-18.45-34.59-6.92-23.06-2.31-16.14v-41.51l6.92-32.28,11.53-27.67,16.14-23.06,32.28-32.28,32.28-18.45,34.59-11.53Z"/>
  <path class="cls-19" d="M1158.26,48.75h11.25l9.38,2.5,7.5,4.38,6.25,5.62,5,6.25,3.12,6.88,1.88,7.5v11.88l-1.88,7.5-4.38,8.12-5.62,6.25-5,4.38-8.75,4.38-8.75,1.88h-8.12l-8.75-1.88-8.75-4.38-6.88-5.62-5-6.88-3.12-6.25-1.88-7.5v-11.25l1.25-6.25,3.12-7.5,4.38-6.25,3.12-3.75,7.5-5.62,7.5-3.12,5.62-1.25ZM1158.26,55.62l-7.5,2.5-6.88,4.38-5.62,5.62-3.75,6.25-1.88,5.62-.62,3.12v9.38l1.88,6.25,3.75,6.88,5.62,6.25,6.25,4.38,6.88,2.5,5,.62h6.25l10-2.5,6.88-4.38,5.62-6.25,4.38-8.75,1.25-5.62v-9.38l-2.5-8.12-3.75-6.25-4.38-5-8.75-5.62-7.5-1.88h-10.62Z"/>
  <path class="cls-19" d="M1588.88,31.25h4.38l6.25,2.5,3.75,4.38,2.5,5,1.25,5v15l-2.5,7.5-3.12,4.38-5,3.12-2.5.62h-6.88l-5.62-1.88-3.12-2.5-3.12-5.62-1.88-7.5v-11.88l1.88-8.12,3.75-5.62,4.38-3.12,5.62-1.25Z"/>
  <path class="cls-19" d="M1410.76,48.75h28.12l5.62,1.88,3.75,3.12,3.75,6.25,3.12,8.12,9.38,35,9.38,35.62,5,18.12,3.75,5.62,5,1.88,53.12.62,26.88.62.62.62v3.75l-.62.62h-79.38l-6.25-1.88-5-3.75-3.12-5-3.75-11.88-15.62-58.75-6.25-23.75-3.75-7.5-3.12-2.5-4.38-1.25-26.88-.62-1.25-2.5v-1.88l1.88-.62Z"/>
  <path class="cls-19" d="M1136.38,131.88h56.88l7.5,1.88,6.88,3.75,6.25,5.62,4.38,5.62,4.38,9.38,1.88,7.5.62,16.25-.62,8.12-4.38-.62-1.25-18.75-1.88-10-4.38-8.75-5.62-6.25-6.88-4.38-6.88-1.88h-58.12l-8.12,2.5-6.25,4.38-5.62,6.25-3.75,7.5-1.88,7.5-.62,5.62-.62,16.25h-5l-.62-2.5v-8.75l.62-10.62,2.5-10.62,5-9.38,5.62-6.25,4.38-3.75,8.75-4.38,6.88-1.25Z"/>
  <path class="cls-23" d="M1152.01,56.88h3.75l-2.5,1.25-.62,3.12-5,6.88-3.75,6.25-1.88,6.88v8.12l2.5,8.12,4.38,5.62,6.88,5,3.12,1.88,7.5,1.25,11.88-1.25,6.25-1.25-3.75,5-5,3.12-10,2.5h-6.25l-6.88-1.25-6.25-2.5-5.62-4.38-5.62-6.25-3.75-7.5-1.25-5v-9.38l1.88-6.88,3.12-6.25,5.62-6.25,6.88-5,4.38-1.88Z"/>
  <path class="cls-1" d="M1588.88,36.25l5.62,1.25,3.75,4.38,1.25,2.5.62,5v12.5l-1.25,6.25-3.12,3.75-4.38,1.88h-4.38l-3.12-1.88-3.12-5.62-.62-3.12v-15.62l1.88-5.62,3.75-4.38,3.12-1.25Z"/>
  <path class="cls-19" d="M1555.13,175h7.5l5,2.5,3.12,3.75,1.88,4.38v6.25l-1.88,4.38-2.5,3.12-3.75,2.5-4.38,1.25-6.25-.62-3.75-2.5-3.75-4.38-1.25-3.12v-8.12l2.5-4.38,4.38-3.75,3.12-1.25Z"/>
  <path class="cls-19" d="M1483.26,175h6.25l5.62,2.5,3.75,5,1.25,6.88-1.25,5.62-3.12,4.38-3.75,2.5-4.38,1.25-6.25-.62-5.62-3.75-3.12-5.62-.62-6.25,1.88-5.62,4.38-4.38,5-1.88Z"/>
  <path class="cls-20" d="M1501.38,80.62h25l.62.62v15.62h-23.75l-1.25-4.38-.62-6.25v-5.62Z"/>
  <path class="cls-13" d="M1532.63,102.5h23.75l-.62,9.38-1.25,6.88-1.25.62h-20l-1.25-3.75v-10l.62-3.12Z"/>
  <path class="cls-20" d="M1470.76,80.62h24.38l1.88,13.75v2.5h-21.88l-1.88-5-2.5-10v-1.25Z"/>
  <path class="cls-17" d="M1503.88,102.5h22.5l.62.62v15.62l-4.38.62h-16.88l-1.25-5-.62-6.25v-5.62Z"/>
  <path class="cls-19" d="M1247.63,25h10.62l10.62.62,1.88,1.25-1.25,4.38-5.62,6.88-5.62,5.62-3.12,3.75,3.12,1.25,9.38,1.25.62.62v3.75l-.62.62-13.75-.62-7.5-1.25-1.25-1.25.62-2.5,4.38-5.62,6.25-6.25,5-6.88-10-.62-3.75-.62-.62-3.75.62-.62Z"/>
  <path class="cls-19" d="M334.35,1439.08h11.53l13.84,16.14,9.22,11.53v4.61l11.53,4.61,32.28,34.59,16.14,18.45,27.67,27.67,20.75,25.36,4.61,9.22-4.61,11.53h-11.53l-50.73-50.73-16.14-18.45-34.59-36.89-20.75-23.06-16.14-20.75,6.92-13.84Z"/>
  <path class="cls-11" d="M1533.26,125h19.38l1.25.62-1.25,13.75-1.25,2.5h-18.75l-.62-1.25v-10.62l.62-4.38.62-.62Z"/>
  <path class="cls-7" d="M1506.38,125h19.38l1.25.62v16.25h-18.75l-.62-.62-1.25-9.38v-6.88Z"/>
  <path class="cls-20" d="M1477.01,102.5h20l1.25,3.12,1.25,9.38v3.75l-5,.62h-13.12l-1.88-4.38-2.5-9.38v-3.12Z"/>
  <path class="cls-19" d="M1235.76,68.12l11.25,1.25,8.12,1.88.62,2.5-4.38,5-5,5-4.38,3.75-1.25,2.5,8.12.62,3.12,1.25v3.75h-8.12l-10-1.88-2.5-1.25.62-3.12,4.38-5,5-4.38,3.12-3.12v-1.25l-8.75-2.5-1.25-3.75,1.25-1.25Z"/>
  <path class="cls-19" d="M1227.63,33.12l1.25.62-1.25,6.25-5.62,10-2.5,4.38,11.88-.62v4.38l-3.75,1.25-9.38,1.88h-5.62l-1.88-1.88,3.12-7.5,5.62-10v-1.88l-4.38.62h-6.25l-1.25-3.12.62-1.25,13.75-2.5,5.62-.62Z"/>
  <path class="cls-12" d="M1563.26,101.88l10,3.75,8.75,2.5-1.88,8.12-1.25,2.5-1.25.62h-16.88v-6.88l1.25-9.38,1.25-1.25Z"/>
  <path class="cls-20" d="M1533.26,80h9.38l6.88,10,3.12,3.75,2.5,1.88v1.25h-22.5l-.62-4.38.62-11.25.62-1.25Z"/>
  <path class="cls-18" d="M1482.63,125h16.25l1.25.62,1.88,10.62v5.62h-8.12l-5-2.5-3.12-3.75-3.12-8.75v-1.88Z"/>
  <path class="cls-11" d="M1563.26,123.75h5l1.25.62,7.5.62-.62,4.38-2.5,6.25-2.5,3.12-4.38,2.5-3.12.62h-5l-.62-.62.62-10,1.25-5.62,3.12-1.88Z"/>
  <path class="cls-10" d="M1484.51,180l5.62.62,3.12,2.5,1.25,2.5v6.88l-3.75,4.38-2.5,1.25-6.25-.62-3.12-3.12-1.88-4.38.62-5,5-4.38,1.88-.62Z"/>
  <path class="cls-21" d="M1558.88,180l5,1.25,3.12,3.75.62,1.88v5l-2.5,3.75-4.38,2.5h-4.38l-3.75-2.5-1.88-1.88-.62-1.88v-6.25l3.75-4.38,5-1.25Z"/>
  <path class="cls-14" d="M1477.63,103.12l7.5,1.88-1.25,3.75-.62,3.75.62,4.38h10.62l1.88-1.25v-4.38l-.62-3.75-6.88-1.88,1.25-1.88,6.25-.62,1.25.62,1.25,5.62.62,9.38-5,.62h-13.12l-1.88-4.38-1.88-6.88v-5Z"/>
  <path class="cls-2" d="M1501.38,80.62h25l.62.62v15.62h-23.75l-1.25-4.38-.62-6.25v-5.62ZM1508.26,81.88l-3.75,2.5-.62,5,1.25,5.62,1.25.62h13.75l3.12-1.88,1.25-1.88v-8.12l-2.5-1.88h-13.75Z"/>
  <path class="cls-2" d="M1470.76,80.62h24.38l1.88,13.75v2.5h-21.88l-1.88-5-2.5-10v-1.25ZM1477.63,81.88l-2.5,1.88-.62,3.75,1.88,6.88,1.25,1.25h13.12l3.12-1.25v-7.5l-1.25-3.75-4.38-1.25h-10.62Z"/>
  <path class="cls-20" d="M1503.88,102.5h22.5v.62l-8.12,1.25,1.25,2.5,1.88,5.62-1.88,3.12-1.88.62h-5l-1.88-1.25v-3.75l2.5-4.38-3.12-2.5-5-.62.62,14.38h-.62l-1.25-10v-5.62Z"/>
  <path class="cls-3" d="M279.01,1132.4l11.53,2.31,29.98,27.67,20.75,32.28,11.53,29.98,4.61,29.98v32.28l-4.61,29.98-11.53,29.98-6.92,6.92-2.31-4.61,13.84-36.89,2.31-20.75v-41.51l-6.92-34.59-18.45-36.89-16.14-18.45-27.67-25.36v-2.31Z"/>
  <path class="cls-15" d="M1572.01,105.62l10,2.5-1.88,8.12-1.88,1.88-1.25.62-10-.62,2.5-1.25,1.25-2.5,1.25-8.75Z"/>
  <path class="cls-4" d="M1178.26,60l3.12.62,5.62,4.38,5,6.88,3.12,7.5.62,3.12v9.38l-1.88,7.5-1.25,2.5h-1.25l1.25-6.25.62-4.38v-6.88l-3.12-9.38-3.75-6.88-4.38-4.38-3.75-3.12v-.62Z"/>
  <path class="cls-22" d="M1492.63,103.12h3.75l1.25,3.12,1.25,11.88h-5l2.5-2.5v-4.38l-.62-3.75-6.88-1.88,1.25-1.88,2.5-.62Z"/>
  <path class="cls-22" d="M1522.01,81.25h4.38v15h-6.25l3.75-4.38v-8.12l-1.88-1.25v-1.25Z"/>
  <path class="cls-22" d="M1488.26,81.25h6.25l1.88,15h-6.25l.62-1.25,3.12-.62-1.25-11.25-4.38-.62v-1.25Z"/>
  <path class="cls-8" d="M350.49,1259.23h4.61v48.42l-9.22,29.98-6.92,13.84-6.92,2.31,13.84-41.51,4.61-53.04Z"/>
  <path class="cls-20" d="M1533.26,125h19.38l1.25.62-.62,2.5v-1.88l-13.12.62-6.88-.62v3.75h-.62v-4.38l.62-.62Z"/>
  <path class="cls-20" d="M1563.26,123.75h5l1.25.62,7.5.62-.62,2.5v-1.25h-15.62l-.62,1.25.62-2.5,2.5-1.25Z"/>
  <path class="cls-24" d="M279.01,1132.4l11.53,2.31,29.98,27.67,6.92,9.22v4.61l-9.22-4.61-20.75-20.75-18.45-16.14v-2.31Z"/>
  <path class="cls-2" d="M348.19,1236.17h6.92l2.31,18.45v32.28h-2.31v-27.67h-4.61l-2.31-23.06Z"/>
  <path class="cls-6" d="M348.19,1316.87l2.31,9.22-11.53,25.36-6.92,2.31,6.92-20.75,9.22-16.14Z"/>
  <path class="cls-3" d="M1207.63,147.5l2.5.62,3.75,5-.62,2.5-5.62-7.5v-.62Z"/>
  <path class="cls-16" d="M341.27,1210.8h6.92l4.61,13.84v11.53l-6.92-2.31-4.61-23.06Z"/>
  <polygon class="cls-19" points="345.88 1439.08 391.58 1487.88 389.06 1499.36 342.44 1442.84 345.88 1439.08"/>
</svg>